<svg xmlns="http://www.w3.org/2000/svg" xmlns:xlink="http://www.w3.org/1999/xlink" viewBox="0 0 64 64"><defs><linearGradient id="b" x1="5" x2="59" y1="34" y2="34" gradientUnits="userSpaceOnUse"><stop offset="0" stop-color="#02aff8"/><stop offset="1" stop-color="#02dbf8"/></linearGradient><linearGradient id="a" x1="31" x2="33" y1="29.5" y2="29.5" gradientUnits="userSpaceOnUse"><stop offset="0" stop-color="#015bbb"/><stop offset="1" stop-color="#02aff8"/></linearGradient><linearGradient id="c" x1="5" x2="59" y1="13" y2="13" gradientUnits="userSpaceOnUse"><stop offset="0" stop-color="#0c408d"/><stop offset="1" stop-color="#015bbb"/></linearGradient><linearGradient id="d" x1="14" x2="50" y1="43.5" y2="43.5" xlink:href="#a"/></defs><polygon fill="url(#b)" points="59 13 59 55 5 55 5 17 20.08 17 25 13 59 13"/><rect width="14" height="11" x="25" y="24" fill="#fff" rx="3" ry="3"/><path fill="#fff" d="M36,26H28a1,1,0,0,1-1-1V24a5,5,0,0,1,10,0v1A1,1,0,0,1,36,26Zm-7-2h6a3,3,0,0,0-6,0Z"/><path fill="url(#a)" d="M32,31a1,1,0,0,1-1-1V29a1,1,0,0,1,2,0v1A1,1,0,0,1,32,31Z"/><polygon fill="url(#c)" points="59 9 59 13 25 13 20.08 17 5 17 5 9 59 9"/><rect width="36" height="9" x="14" y="39" fill="url(#d)"/><circle cx="19.5" cy="43.5" r="1.5" fill="#fff"/><circle cx="24.5" cy="43.5" r="1.5" fill="#fff"/><circle cx="29.5" cy="43.5" r="1.5" fill="#fff"/><circle cx="34.5" cy="43.5" r="1.5" fill="#fff"/><circle cx="39.5" cy="43.5" r="1.5" fill="#fff"/><circle cx="44.5" cy="43.5" r="1.5" fill="#fff"/><path fill="#122333" d="M5 36a1 1 0 0 1-1-1V34a1 1 0 0 1 2 0v1A1 1 0 0 1 5 36zM59 56H5a1 1 0 0 1-1-1V39a1 1 0 0 1 2 0V54H58V23a1 1 0 0 1 2 0V55A1 1 0 0 1 59 56zM5 31a1 1 0 0 1-1-1V9A1 1 0 0 1 5 8H59a1 1 0 0 1 1 1V19a1 1 0 0 1-2 0V10H6V30A1 1 0 0 1 5 31z"/><path fill="#122333" d="M36,35H28a3,3,0,0,1-3-3V27a3,3,0,0,1,3-3h8a3,3,0,0,1,3,3v5A3,3,0,0,1,36,35Zm-8-9a1,1,0,0,0-1,1v5a1,1,0,0,0,1,1h8a1,1,0,0,0,1-1V27a1,1,0,0,0-1-1Z"/><path fill="#122333" d="M36 26H28a1 1 0 0 1-1-1V24a5 5 0 0 1 10 0v1A1 1 0 0 1 36 26zm-7-2h6a3 3 0 0 0-6 0zM20.08 18H5a1 1 0 0 1-1-1V9A1 1 0 0 1 5 8H59a1 1 0 0 1 1 1v4a1 1 0 0 1-1 1H42a1 1 0 0 1 0-2H58V10H6v6H19.73l4.64-3.78A1 1 0 0 1 25 12H38a1 1 0 0 1 0 2H25.36l-4.65 3.78A1 1 0 0 1 20.08 18zM50 49H25a1 1 0 0 1 0-2H49V40H15v7h6a1 1 0 0 1 0 2H14a1 1 0 0 1-1-1V39a1 1 0 0 1 1-1H50a1 1 0 0 1 1 1v9A1 1 0 0 1 50 49z"/></svg>