<svg xmlns="http://www.w3.org/2000/svg" xmlns:xlink="http://www.w3.org/1999/xlink" viewBox="0 0 64 64"><defs><linearGradient id="b" x1="7" x2="57" y1="30.5" y2="30.5" gradientUnits="userSpaceOnUse"><stop offset="0" stop-color="#02aff8"/><stop offset="1" stop-color="#02dbf8"/></linearGradient><linearGradient id="a" x1="7" x2="57" y1="11" y2="11" gradientUnits="userSpaceOnUse"><stop offset="0" stop-color="#0c408d"/><stop offset="1" stop-color="#015bbb"/></linearGradient><linearGradient id="c" x1="24" x2="40" y1="51" y2="51" xlink:href="#a"/></defs><path fill="url(#b)" d="M57,12V49H40V47a2,2,0,0,0-2-2H26a2,2,0,0,0-2,2v2H7V15H23.08L26,12Z"/><polygon fill="url(#a)" points="57 7 57 12 26 12 23.08 15 7 15 7 7 57 7"/><path fill="#fff" d="M20 25a1 1 0 0 1-1-1V19a1 1 0 0 1 2 0v5A1 1 0 0 1 20 25zM24 25a1 1 0 0 1-1-1V19a1 1 0 0 1 2 0v5A1 1 0 0 1 24 25zM36 25a1 1 0 0 1-1-1V19a1 1 0 0 1 2 0v5A1 1 0 0 1 36 25zM30 25a3 3 0 0 1-3-3V21a3 3 0 0 1 6 0v1A3 3 0 0 1 30 25zm0-5a1 1 0 0 0-1 1v1a1 1 0 0 0 2 0V21A1 1 0 0 0 30 20z"/><path fill="#fff" d="M20 25a1 1 0 0 1-1-1V19a1 1 0 0 1 2 0v5A1 1 0 0 1 20 25zM24 25a1 1 0 0 1-1-1V19a1 1 0 0 1 2 0v5A1 1 0 0 1 24 25zM30 25a3 3 0 0 1-3-3V21a3 3 0 0 1 6 0v1A3 3 0 0 1 30 25zm0-5a1 1 0 0 0-1 1v1a1 1 0 0 0 2 0V21A1 1 0 0 0 30 20zM12 45a1 1 0 0 1-1-1V39a1 1 0 0 1 2 0v5A1 1 0 0 1 12 45zM18 45a3 3 0 0 1-3-3V41a3 3 0 0 1 6 0v1A3 3 0 0 1 18 45zm0-5a1 1 0 0 0-1 1v1a1 1 0 0 0 2 0V41A1 1 0 0 0 18 40z"/><path fill="#fff" d="M12 45a1 1 0 0 1-1-1V39a1 1 0 0 1 2 0v5A1 1 0 0 1 12 45zM18 45a3 3 0 0 1-3-3V41a3 3 0 0 1 6 0v1A3 3 0 0 1 18 45zm0-5a1 1 0 0 0-1 1v1a1 1 0 0 0 2 0V41A1 1 0 0 0 18 40zM50 35a3 3 0 0 1-3-3V31a3 3 0 0 1 6 0v1A3 3 0 0 1 50 35zm0-5a1 1 0 0 0-1 1v1a1 1 0 0 0 2 0V31A1 1 0 0 0 50 30z"/><path fill="#fff" d="M50 35a3 3 0 0 1-3-3V31a3 3 0 0 1 6 0v1A3 3 0 0 1 50 35zm0-5a1 1 0 0 0-1 1v1a1 1 0 0 0 2 0V31A1 1 0 0 0 50 30zM42 25a3 3 0 0 1-3-3V21a3 3 0 0 1 6 0v1A3 3 0 0 1 42 25zm0-5a1 1 0 0 0-1 1v1a1 1 0 0 0 2 0V21A1 1 0 0 0 42 20zM36 35a1 1 0 0 1-1-1V29a1 1 0 0 1 2 0v5A1 1 0 0 1 36 35zM32 35a1 1 0 0 1-1-1V29a1 1 0 0 1 2 0v5A1 1 0 0 1 32 35zM20 35a1 1 0 0 1-1-1V29a1 1 0 0 1 2 0v5A1 1 0 0 1 20 35zM16 35a1 1 0 0 1-1-1V29a1 1 0 0 1 2 0v5A1 1 0 0 1 16 35zM12 35a1 1 0 0 1-1-1V29a1 1 0 0 1 2 0v5A1 1 0 0 1 12 35zM42 35a3 3 0 0 1-3-3V31a3 3 0 0 1 6 0v1A3 3 0 0 1 42 35zm0-5a1 1 0 0 0-1 1v1a1 1 0 0 0 2 0V31A1 1 0 0 0 42 30zM26 35a3 3 0 0 1-3-3V31a3 3 0 0 1 6 0v1A3 3 0 0 1 26 35zm0-5a1 1 0 0 0-1 1v1a1 1 0 0 0 2 0V31A1 1 0 0 0 26 30zM44 44a1 1 0 0 1-1-1V38a1 1 0 0 1 2 0v5A1 1 0 0 1 44 44zM50 44a3 3 0 0 1-3-3V40a3 3 0 0 1 6 0v1A3 3 0 0 1 50 44zm0-5a1 1 0 0 0-1 1v1a1 1 0 0 0 2 0V40A1 1 0 0 0 50 39zM48 25a1 1 0 0 1-1-1V19a1 1 0 0 1 2 0v5A1 1 0 0 1 48 25zM52 25a1 1 0 0 1-1-1V19a1 1 0 0 1 2 0v5A1 1 0 0 1 52 25zM14 25a3 3 0 0 1-3-3V21a3 3 0 0 1 6 0v1A3 3 0 0 1 14 25zm0-5a1 1 0 0 0-1 1v1a1 1 0 0 0 2 0V21A1 1 0 0 0 14 20z"/><path fill="url(#c)" d="M40,47.57v6.86A2.63,2.63,0,0,1,37.33,57H26.67A2.63,2.63,0,0,1,24,54.43V47.57A2.63,2.63,0,0,1,26.67,45H37.33A2.63,2.63,0,0,1,40,47.57Z"/><path fill="#fff" d="M31,54a1,1,0,0,1-.71-.29l-2-2a1,1,0,0,1,1.42-1.42L31,51.59l3.29-3.3a1,1,0,0,1,1.42,1.42l-4,4A1,1,0,0,1,31,54Z"/><path fill="#122333" d="M57 34a1 1 0 0 1-1-1V8H52a1 1 0 0 1 0-2h5a1 1 0 0 1 1 1V33A1 1 0 0 1 57 34zM11 50H7a1 1 0 0 1-1-1V7A1 1 0 0 1 7 6H48a1 1 0 0 1 0 2H8V48h3a1 1 0 0 1 0 2zM24 50H15a1 1 0 0 1 0-2h8V47a3 3 0 0 1 3-3h5a1 1 0 0 1 0 2H26a1 1 0 0 0-1 1v2A1 1 0 0 1 24 50zM57 50H40a1 1 0 0 1-1-1V47a1 1 0 0 0-1-1H35a1 1 0 0 1 0-2h3a3 3 0 0 1 3 3v1H56V37a1 1 0 0 1 2 0V49A1 1 0 0 1 57 50z"/><path fill="#122333" d="M38,58H26a3,3,0,0,1-3-3V47a3,3,0,0,1,3-3h5a1,1,0,0,1,0,2H26a1,1,0,0,0-1,1v8a1,1,0,0,0,1,1H38a1,1,0,0,0,1-1V47a1,1,0,0,0-1-1H35a1,1,0,0,1,0-2h3a3,3,0,0,1,3,3v8A3,3,0,0,1,38,58Z"/><path fill="#122333" d="M37 46H35a1 1 0 0 1 0-2h1V42a4 4 0 0 0-4-4 4 4 0 0 0-4 4v2h3a1 1 0 0 1 0 2H27a1 1 0 0 1-1-1V42a6 6 0 1 1 12 0v3A1 1 0 0 1 37 46zM12 16H7a1 1 0 0 1-1-1V7A1 1 0 0 1 7 6H48a1 1 0 0 1 0 2H8v6h4a1 1 0 0 1 0 2z"/><path fill="#122333" d="M23.08,16H16a1,1,0,0,1,0-2h6.66l2.62-2.7A1,1,0,0,1,26,11H56V8H52a1,1,0,0,1,0-2h5a1,1,0,0,1,1,1v5a1,1,0,0,1-1,1H26.42L23.8,15.7A1,1,0,0,1,23.08,16Z"/></svg>